<svg version="1.1" id="Layer_1" xmlns="http://www.w3.org/2000/svg" xmlns:xlink="http://www.w3.org/1999/xlink" x="0px" y="0px"
	 width="100%" viewBox="0 0 1080 1080" enable-background="new 0 0 1080 1080" xml:space="preserve">
<path fill="#FFFFFF" opacity="1.000000" stroke="none" 
	d="
M704.000000,1081.000000 
	C469.360352,1081.000000 235.220703,1081.000000 1.040532,1081.000000 
	C1.040532,721.068542 1.040532,361.137115 1.040532,1.102845 
	C360.889862,1.102845 720.779785,1.102845 1080.834839,1.102845 
	C1080.834839,360.999939 1080.834839,720.999939 1080.834839,1081.000000 
	C955.469971,1081.000000 829.984985,1081.000000 704.000000,1081.000000 
M805.796509,575.280396 
	C812.971802,544.930908 814.313721,514.315918 808.989868,483.594025 
	C797.208618,415.609192 760.926086,364.668243 700.764709,331.142242 
	C660.803528,308.873169 617.360474,301.244507 571.889038,301.592346 
	C504.569244,302.107361 437.241241,301.540192 369.916718,301.435669 
	C364.684784,301.427551 359.452850,301.434570 354.258606,301.434570 
	C354.258606,461.782776 354.258606,621.002441 354.258606,780.443970 
	C356.467651,780.443970 358.277832,780.443237 360.087982,780.444092 
	C458.080658,780.490356 556.073364,780.552246 654.065979,780.476746 
	C656.102173,780.475220 658.604614,779.369263 660.089355,777.944580 
	C665.613159,772.644226 670.842102,767.032715 676.110229,761.470337 
	C700.043030,736.200500 724.756287,711.612122 747.662109,685.442322 
	C775.424866,653.723389 795.207825,617.263916 805.796509,575.280396 
z"/>
<path fill="#F94199" opacity="1.000000" stroke="none" 
	d="
M805.701782,575.684814 
	C795.207825,617.263916 775.424866,653.723389 747.662109,685.442322 
	C724.756287,711.612122 700.043030,736.200500 676.110229,761.470337 
	C670.842102,767.032715 665.613159,772.644226 660.089355,777.944580 
	C658.604614,779.369263 656.102173,780.475220 654.065979,780.476746 
	C556.073364,780.552246 458.080658,780.490356 360.087982,780.444092 
	C358.277832,780.443237 356.467651,780.443970 354.258606,780.443970 
	C354.258606,621.002441 354.258606,461.782776 354.258606,301.434570 
	C359.452850,301.434570 364.684784,301.427551 369.916718,301.435669 
	C437.241241,301.540192 504.569244,302.107361 571.889038,301.592346 
	C617.360474,301.244507 660.803528,308.873169 700.764709,331.142242 
	C760.926086,364.668243 797.208618,415.609192 808.989868,483.594025 
	C814.313721,514.315918 812.971802,544.930908 805.701782,575.684814 
M393.249664,340.278076 
	C393.254028,472.225739 393.259186,604.173401 393.255585,736.121094 
	C393.255524,738.282959 393.148132,740.444763 393.484741,743.373596 
	C395.269409,743.583313 397.054016,743.975891 398.838745,743.976501 
	C478.160339,744.005981 557.481934,744.007141 636.803528,743.959290 
	C638.535156,743.958252 640.266418,743.350464 642.502869,742.594849 
	C656.361572,728.209473 670.127686,713.733398 684.101379,699.460632 
	C703.455078,679.692688 722.607056,659.780579 737.950806,636.576599 
	C767.670349,591.632385 781.263000,542.882080 771.938110,489.071869 
	C762.184753,432.789093 731.519226,391.207581 681.789246,363.470978 
	C666.723389,355.068085 650.496826,349.641052 633.520203,344.421295 
	C630.017761,343.872833 626.515381,343.324402 622.287903,342.811218 
	C621.845154,342.633301 621.402466,342.455414 620.688843,341.681427 
	C612.404968,340.457336 604.125671,338.208496 595.836487,338.171387 
	C529.723083,337.875031 463.607880,337.988831 397.493286,338.050812 
	C396.036285,338.052185 394.580139,338.929016 393.249664,340.278076 
z"/>
<path fill="#FEFCFE" opacity="1.000000" stroke="none" 
	d="
M393.090851,742.606628 
	C393.148132,740.444763 393.255524,738.282959 393.255585,736.121094 
	C393.259186,604.173401 393.254028,472.225739 393.637695,339.739716 
	C396.020203,339.150330 398.014679,339.055084 400.009186,339.054749 
	C446.777679,339.046661 493.546234,338.991119 540.314575,339.071350 
	C567.232849,339.117493 594.210999,337.879303 620.959717,342.277527 
	C621.402466,342.455414 621.845154,342.633301 623.035522,342.903381 
	C627.183228,343.652374 630.583313,344.309204 633.983459,344.966003 
	C650.496826,349.641052 666.723389,355.068085 681.789246,363.470978 
	C731.519226,391.207581 762.184753,432.789093 771.938110,489.071869 
	C781.263000,542.882080 767.670349,591.632385 737.950806,636.576599 
	C722.607056,659.780579 703.455078,679.692688 684.101379,699.460632 
	C670.127686,713.733398 656.361572,728.209473 641.782715,742.776855 
	C560.557129,742.962402 480.051788,742.968750 399.546417,742.954285 
	C397.394531,742.953857 395.242706,742.727600 393.090851,742.606628 
M628.957825,696.783752 
	C632.475830,693.236328 636.086243,689.775269 639.496582,686.127136 
	C658.139648,666.183960 677.634277,646.948608 695.130371,626.042358 
	C720.483215,595.748108 734.796143,560.969055 732.366150,520.450500 
	C729.861450,478.685364 713.405579,443.944702 680.945801,417.337463 
	C654.002563,395.252136 622.578430,384.749390 587.058655,383.016571 
	C535.804138,383.016571 484.549622,383.016571 433.081238,383.016571 
	C433.081238,488.545471 433.081238,593.548523 433.081238,698.577454 
	C433.847137,698.771484 434.311951,698.992249 434.776855,698.992432 
	C497.912170,699.018494 561.047485,699.041077 624.182678,698.957031 
	C625.584778,698.955139 626.985229,697.728699 628.957825,696.783752 
z"/>
<path fill="#DA4B8B" opacity="1.000000" stroke="none" 
	d="
M393.287781,742.990112 
	C395.242706,742.727600 397.394531,742.953857 399.546417,742.954285 
	C480.051788,742.968750 560.557129,742.962402 641.530151,742.992310 
	C640.266418,743.350464 638.535156,743.958252 636.803528,743.959290 
	C557.481934,744.007141 478.160339,744.005981 398.838745,743.976501 
	C397.054016,743.975891 395.269409,743.583313 393.287781,742.990112 
z"/>
<path fill="#DB4E90" opacity="1.000000" stroke="none" 
	d="
M620.824280,341.979492 
	C594.210999,337.879303 567.232849,339.117493 540.314575,339.071350 
	C493.546234,338.991119 446.777679,339.046661 400.009186,339.054749 
	C398.014679,339.055084 396.020203,339.150330 393.574646,339.299377 
	C394.580139,338.929016 396.036285,338.052185 397.493286,338.050812 
	C463.607880,337.988831 529.723083,337.875031 595.836487,338.171387 
	C604.125671,338.208496 612.404968,340.457336 620.824280,341.979492 
z"/>
<path fill="#DB4E90" opacity="1.000000" stroke="none" 
	d="
M633.751831,344.693665 
	C630.583313,344.309204 627.183228,343.652374 623.398010,342.885742 
	C626.515381,343.324402 630.017761,343.872833 633.751831,344.693665 
z"/>
<path fill="#F94299" opacity="1.000000" stroke="none" 
	d="
M587.983154,383.180389 
	C622.578430,384.749390 654.002563,395.252136 680.945801,417.337463 
	C713.405579,443.944702 729.861450,478.685364 732.366150,520.450500 
	C734.796143,560.969055 720.483215,595.748108 695.130371,626.042358 
	C677.634277,646.948608 658.139648,666.183960 639.496582,686.127136 
	C636.086243,689.775269 632.475830,693.236328 628.220154,696.936462 
	C625.193115,697.392761 622.903870,697.959717 620.614258,697.961609 
	C560.289001,698.010010 499.963531,697.942139 439.638672,698.111267 
	C434.874176,698.124573 433.903198,696.620972 433.908264,692.184937 
	C434.022919,591.365112 434.027618,490.545166 433.897858,389.725372 
	C433.891937,385.123993 435.128754,383.881836 439.727570,383.897949 
	C487.220673,384.064270 534.714539,384.010010 582.208191,383.965881 
	C584.133484,383.964081 586.058167,383.453766 587.983154,383.180389 
M470.956116,631.500000 
	C470.956116,641.569214 470.956116,651.638367 470.956116,661.734985 
	C473.083496,661.846985 474.242310,661.961365 475.401154,661.961426 
	C519.232666,661.964844 563.064392,662.003479 606.895142,661.823120 
	C609.201355,661.813660 612.052429,660.488464 613.711731,658.834595 
	C624.093079,648.487061 634.187256,637.851990 644.415161,627.349731 
	C660.051514,611.294006 674.314514,594.240540 684.420959,574.013062 
	C704.499207,533.827637 695.368469,485.043121 667.581543,455.856323 
	C644.931580,432.065216 616.522339,421.138763 584.379578,420.387207 
	C547.734192,419.530457 511.055542,420.093567 474.391357,420.056824 
	C473.434906,420.055847 472.478271,420.254089 470.956055,420.421692 
	C470.956055,490.610199 470.956055,560.555115 470.956116,631.500000 
z"/>
<path fill="#DA498D" opacity="1.000000" stroke="none" 
	d="
M587.520874,383.098480 
	C586.058167,383.453766 584.133484,383.964081 582.208191,383.965881 
	C534.714539,384.010010 487.220673,384.064270 439.727570,383.897949 
	C435.128754,383.881836 433.891937,385.123993 433.897858,389.725372 
	C434.027618,490.545166 434.022919,591.365112 433.908264,692.184937 
	C433.903198,696.620972 434.874176,698.124573 439.638672,698.111267 
	C499.963531,697.942139 560.289001,698.010010 620.614258,697.961609 
	C622.903870,697.959717 625.193115,697.392761 627.934448,697.081299 
	C626.985229,697.728699 625.584778,698.955139 624.182678,698.957031 
	C561.047485,699.041077 497.912170,699.018494 434.776855,698.992432 
	C434.311951,698.992249 433.847137,698.771484 433.081238,698.577454 
	C433.081238,593.548523 433.081238,488.545471 433.081238,383.016571 
	C484.549622,383.016571 535.804138,383.016571 587.520874,383.098480 
z"/>
<path fill="#FEFCFE" opacity="1.000000" stroke="none" 
	d="
M470.956085,631.000000 
	C470.956055,560.555115 470.956055,490.610199 470.956055,420.421692 
	C472.478271,420.254089 473.434906,420.055847 474.391357,420.056824 
	C511.055542,420.093567 547.734192,419.530457 584.379578,420.387207 
	C616.522339,421.138763 644.931580,432.065216 667.581543,455.856323 
	C695.368469,485.043121 704.499207,533.827637 684.420959,574.013062 
	C674.314514,594.240540 660.051514,611.294006 644.415161,627.349731 
	C634.187256,637.851990 624.093079,648.487061 613.711731,658.834595 
	C612.052429,660.488464 609.201355,661.813660 606.895142,661.823120 
	C563.064392,662.003479 519.232666,661.964844 475.401154,661.961426 
	C474.242310,661.961365 473.083496,661.846985 470.956116,661.734985 
	C470.956116,651.638367 470.956116,641.569214 470.956085,631.000000 
M512.140564,464.145691 
	C511.685516,465.568787 510.834747,466.991272 510.832581,468.415039 
	C510.758575,516.774780 510.753967,565.134583 510.815155,613.494324 
	C510.816986,614.925537 511.633514,616.355652 512.981323,617.975220 
	C540.643433,617.998840 568.305664,618.055481 595.967407,617.970764 
	C597.779541,617.965210 600.133362,617.412964 601.313538,616.210510 
	C611.926636,605.396790 622.850647,594.821289 632.662842,583.306213 
	C643.603149,570.467224 651.714111,555.757996 652.949707,538.505615 
	C655.698730,500.120758 629.371521,468.092072 590.883667,465.182770 
	C565.046936,463.229736 538.970886,464.443756 512.140564,464.145691 
z"/>
<path fill="#F94299" opacity="1.000000" stroke="none" 
	d="
M513.001831,464.240784 
	C538.970886,464.443756 565.046936,463.229736 590.883667,465.182770 
	C629.371521,468.092072 655.698730,500.120758 652.949707,538.505615 
	C651.714111,555.757996 643.603149,570.467224 632.662842,583.306213 
	C622.850647,594.821289 611.926636,605.396790 601.313538,616.210510 
	C600.133362,617.412964 597.779541,617.965210 595.967407,617.970764 
	C568.305664,618.055481 540.643433,617.998840 512.510010,617.428711 
	C512.025024,567.762817 512.000854,518.643494 512.039856,469.524170 
	C512.041321,467.762756 512.667053,466.001892 513.001831,464.240784 
M586.979126,581.982483 
	C586.979126,581.982483 586.900757,581.947388 587.579407,581.906006 
	C588.034363,581.236511 588.489319,580.567017 588.977722,579.979919 
	C588.977722,579.979919 588.898560,579.939392 589.666199,579.969177 
	C590.428589,578.951904 591.190979,577.934570 591.987000,576.983521 
	C591.987000,576.983521 591.913086,576.975525 592.406189,576.781982 
	C592.596741,576.493591 592.787292,576.205261 592.986023,575.989014 
	C592.986023,575.989014 592.920959,575.956848 593.686890,575.971924 
	C594.438660,574.948608 595.190430,573.925354 595.978394,572.971375 
	C595.978394,572.971375 595.900208,572.970398 596.396912,572.772644 
	C596.587097,572.480103 596.777283,572.187561 596.967102,571.973633 
	C596.967102,571.973633 596.894836,571.942749 597.574768,571.904541 
	C598.031677,571.236389 598.488586,570.568237 598.979370,569.978943 
	C598.979370,569.978943 598.900269,569.945557 599.580017,569.904663 
	C600.035583,569.236572 600.491150,568.568481 600.980164,567.978027 
	C600.980164,567.978027 600.901184,567.947876 601.596619,567.898865 
	C602.044739,567.199341 602.492920,566.499817 603.049683,565.383362 
	C603.211487,565.118042 603.446899,564.968384 604.517334,564.927490 
	C605.308044,563.831116 606.098694,562.734741 606.969788,561.286255 
	C607.102539,561.055908 607.301758,560.937073 608.256592,560.712036 
	C608.483887,560.302490 608.711182,559.893005 608.922974,559.190735 
	C608.922974,559.190735 609.155518,559.012085 609.777222,558.896545 
	C610.168213,558.234497 610.559204,557.572449 610.981323,556.987122 
	C610.981323,556.987122 610.906555,556.951599 611.633911,556.917480 
	C612.305786,555.837036 612.977661,554.756653 613.757141,553.726868 
	C613.757141,553.726868 613.652710,553.783752 614.408630,553.670288 
	C614.937988,552.109253 615.467346,550.548279 616.002441,549.000000 
	C616.002441,549.000000 615.989685,548.998352 616.697876,548.892273 
	C617.415161,546.241272 618.132507,543.590210 618.835754,540.022644 
	C619.837524,521.079163 612.405884,508.037720 596.394592,501.174072 
	C592.767151,499.619049 588.807983,498.837921 584.753662,496.964539 
	C584.203247,496.657013 583.654175,496.083954 583.102173,496.081024 
	C571.281189,496.018341 559.459534,495.983673 547.639221,496.080170 
	C546.746033,496.087463 545.861145,497.116272 544.890930,498.466400 
	C544.745117,499.246643 544.599304,500.026855 544.146606,500.292297 
	C543.979797,499.529419 543.812927,498.766541 543.614807,497.860535 
	C543.326965,498.260010 543.024719,498.483673 543.024475,498.707611 
	C543.001404,525.180298 542.980835,551.653137 543.059937,578.125610 
	C543.063721,579.393311 543.958313,580.658325 544.735962,582.680298 
	C544.817444,583.215698 544.898926,583.751099 545.238953,585.016663 
	C545.779602,585.329834 546.318726,585.913452 546.861084,585.916382 
	C558.742920,585.981201 570.625854,586.041870 582.506042,585.895752 
	C583.621399,585.882019 584.719727,584.487488 585.802124,583.884277 
	C585.802124,583.884277 585.672424,583.804749 586.314819,583.663452 
	C586.524719,583.076904 586.734619,582.490417 586.979126,581.982483 
z"/>
<path fill="#D63E84" opacity="1.000000" stroke="none" 
	d="
M512.571167,464.193237 
	C512.667053,466.001892 512.041321,467.762756 512.039856,469.524170 
	C512.000854,518.643494 512.025024,567.762817 512.054443,617.334229 
	C511.633514,616.355652 510.816986,614.925537 510.815155,613.494324 
	C510.753967,565.134583 510.758575,516.774780 510.832581,468.415039 
	C510.834747,466.991272 511.685516,465.568787 512.571167,464.193237 
z"/>
<path fill="#FFFDFE" opacity="1.000000" stroke="none" 
	d="
M585.001526,497.700562 
	C588.807983,498.837921 592.767151,499.619049 596.394592,501.174072 
	C612.405884,508.037720 619.837524,521.079163 618.620972,540.750854 
	C617.600647,543.985474 616.795166,546.491943 615.989685,548.998352 
	C615.989685,548.998352 616.002441,549.000000 615.736694,549.211304 
	C614.864868,550.876343 614.258789,552.330078 613.652710,553.783752 
	C613.652710,553.783752 613.757141,553.726868 613.400513,553.778076 
	C612.331482,554.870056 611.619019,555.910828 610.906555,556.951599 
	C610.906555,556.951599 610.981323,556.987122 610.704102,557.070068 
	C610.003113,557.772644 609.579346,558.392395 609.155518,559.012085 
	C609.155518,559.012085 608.922974,559.190735 608.634399,559.508118 
	C608.086304,560.193542 607.826843,560.561584 607.567383,560.929626 
	C607.301758,560.937073 607.102539,561.055908 606.628296,561.607544 
	C605.443176,562.930664 604.599548,563.932556 603.755859,564.934387 
	C603.446899,564.968384 603.211487,565.118042 602.722961,565.730164 
	C601.897888,566.700623 601.399536,567.324219 600.901184,567.947876 
	C600.901184,567.947876 600.980164,567.978027 600.678406,568.037598 
	C599.884521,568.713257 599.392395,569.329407 598.900269,569.945557 
	C598.900269,569.945557 598.979370,569.978943 598.679321,570.043335 
	C597.884460,570.719360 597.389648,571.331055 596.894836,571.942749 
	C596.894836,571.942749 596.967102,571.973633 596.705444,572.015381 
	C596.262573,572.361572 596.081360,572.666016 595.900208,572.970398 
	C595.900208,572.970398 595.978394,572.971375 595.667358,573.052612 
	C594.544495,574.074829 593.732727,575.015869 592.920959,575.956848 
	C592.920959,575.956848 592.986023,575.989014 592.724609,576.035156 
	C592.279785,576.379395 592.096436,576.677429 591.913086,576.975525 
	C591.913086,576.975525 591.987000,576.983521 591.672974,577.056396 
	C590.538879,578.065979 589.718750,579.002686 588.898560,579.939392 
	C588.898560,579.939392 588.977722,579.979919 588.677612,580.041931 
	C587.885315,580.718445 587.393066,581.332947 586.900757,581.947388 
	C586.900757,581.947388 586.979126,581.982483 586.673096,582.073364 
	C586.135437,582.711060 585.903931,583.257935 585.672424,583.804749 
	C585.672424,583.804749 585.802124,583.884277 585.357361,583.836182 
	C571.601868,583.954224 558.291138,584.120361 544.980408,584.286499 
	C544.898926,583.751099 544.817444,583.215698 544.710205,581.929077 
	C544.615173,580.400269 544.545959,579.622559 544.609497,578.406677 
	C544.772400,563.665649 544.855103,549.362793 544.815186,535.060181 
	C544.785522,524.429382 544.596802,513.799011 544.575439,502.778351 
	C544.599182,501.861206 544.526367,501.334137 544.453491,500.807098 
	C544.599304,500.026855 544.745117,499.246643 545.400146,498.101318 
	C558.940063,497.724335 571.970764,497.712433 585.001526,497.700562 
z"/>
<path fill="#E63C8D" opacity="1.000000" stroke="none" 
	d="
M544.476685,578.844910 
	C544.545959,579.622559 544.615173,580.400269 544.561279,581.551270 
	C543.958313,580.658325 543.063721,579.393311 543.059937,578.125610 
	C542.980835,551.653137 543.001404,525.180298 543.024475,498.707611 
	C543.024719,498.483673 543.326965,498.260010 543.614807,497.860535 
	C543.812927,498.766541 543.979797,499.529419 544.300049,500.549683 
	C544.526367,501.334137 544.599182,501.861206 544.398926,503.125793 
	C544.077881,528.225952 544.026184,552.588562 544.002808,576.951233 
	C544.002197,577.582336 544.311768,578.213684 544.476685,578.844910 
z"/>
<path fill="#DE478C" opacity="1.000000" stroke="none" 
	d="
M545.109680,584.651611 
	C558.291138,584.120361 571.601868,583.954224 585.369263,583.761047 
	C584.719727,584.487488 583.621399,585.882019 582.506042,585.895752 
	C570.625854,586.041870 558.742920,585.981201 546.861084,585.916382 
	C546.318726,585.913452 545.779602,585.329834 545.109680,584.651611 
z"/>
<path fill="#DD3F8A" opacity="1.000000" stroke="none" 
	d="
M584.877563,497.332520 
	C571.970764,497.712433 558.940063,497.724335 545.440918,497.703247 
	C545.861145,497.116272 546.746033,496.087463 547.639221,496.080170 
	C559.459534,495.983673 571.281189,496.018341 583.102173,496.081024 
	C583.654175,496.083954 584.203247,496.657013 584.877563,497.332520 
z"/>
<path fill="#DE478C" opacity="1.000000" stroke="none" 
	d="
M616.343750,548.945312 
	C616.795166,546.491943 617.600647,543.985474 618.627991,541.209106 
	C618.132507,543.590210 617.415161,546.241272 616.343750,548.945312 
z"/>
<path fill="#DE478C" opacity="1.000000" stroke="none" 
	d="
M604.136597,564.930908 
	C604.599548,563.932556 605.443176,562.930664 606.588074,561.783569 
	C606.098694,562.734741 605.308044,563.831116 604.136597,564.930908 
z"/>
<path fill="#DE478C" opacity="1.000000" stroke="none" 
	d="
M611.270264,556.934570 
	C611.619019,555.910828 612.331482,554.870056 613.346741,553.752808 
	C612.977661,554.756653 612.305786,555.837036 611.270264,556.934570 
z"/>
<path fill="#DE478C" opacity="1.000000" stroke="none" 
	d="
M614.030640,553.727051 
	C614.258789,552.330078 614.864868,550.876343 615.733826,549.204956 
	C615.467346,550.548279 614.937988,552.109253 614.030640,553.727051 
z"/>
<path fill="#DE478C" opacity="1.000000" stroke="none" 
	d="
M593.303955,575.964355 
	C593.732727,575.015869 594.544495,574.074829 595.649231,573.017944 
	C595.190430,573.925354 594.438660,574.948608 593.303955,575.964355 
z"/>
<path fill="#DE478C" opacity="1.000000" stroke="none" 
	d="
M589.282410,579.954285 
	C589.718750,579.002686 590.538879,578.065979 591.656128,577.023254 
	C591.190979,577.934570 590.428589,578.951904 589.282410,579.954285 
z"/>
<path fill="#DE478C" opacity="1.000000" stroke="none" 
	d="
M601.248901,567.923340 
	C601.399536,567.324219 601.897888,566.700623 602.668640,565.938599 
	C602.492920,566.499817 602.044739,567.199341 601.248901,567.923340 
z"/>
<path fill="#DE478C" opacity="1.000000" stroke="none" 
	d="
M599.240112,569.925110 
	C599.392395,569.329407 599.884521,568.713257 600.661682,567.998779 
	C600.491150,568.568481 600.035583,569.236572 599.240112,569.925110 
z"/>
<path fill="#DE478C" opacity="1.000000" stroke="none" 
	d="
M597.234802,571.923645 
	C597.389648,571.331055 597.884460,570.719360 598.662354,570.003845 
	C598.488586,570.568237 598.031677,571.236389 597.234802,571.923645 
z"/>
<path fill="#DE478C" opacity="1.000000" stroke="none" 
	d="
M587.240112,581.926697 
	C587.393066,581.332947 587.885315,580.718445 588.660889,580.000732 
	C588.489319,580.567017 588.034363,581.236511 587.240112,581.926697 
z"/>
<path fill="#DE478C" opacity="1.000000" stroke="none" 
	d="
M609.466370,558.954346 
	C609.579346,558.392395 610.003113,557.772644 610.688599,557.031677 
	C610.559204,557.572449 610.168213,558.234497 609.466370,558.954346 
z"/>
<path fill="#DE478C" opacity="1.000000" stroke="none" 
	d="
M585.993652,583.734131 
	C585.903931,583.257935 586.135437,582.711060 586.655762,582.034058 
	C586.734619,582.490417 586.524719,583.076904 585.993652,583.734131 
z"/>
<path fill="#DE478C" opacity="1.000000" stroke="none" 
	d="
M607.911987,560.820801 
	C607.826843,560.561584 608.086304,560.193542 608.642151,559.654541 
	C608.711182,559.893005 608.483887,560.302490 607.911987,560.820801 
z"/>
<path fill="#DE478C" opacity="1.000000" stroke="none" 
	d="
M596.148560,572.871521 
	C596.081360,572.666016 596.262573,572.361572 596.705627,571.976074 
	C596.777283,572.187561 596.587097,572.480103 596.148560,572.871521 
z"/>
<path fill="#DE478C" opacity="1.000000" stroke="none" 
	d="
M592.159668,576.878784 
	C592.096436,576.677429 592.279785,576.379395 592.720581,575.999084 
	C592.787292,576.205261 592.596741,576.493591 592.159668,576.878784 
z"/>
<path fill="#F94299" opacity="1.000000" stroke="none" 
	d="
M544.609497,578.406677 
	C544.311768,578.213684 544.002197,577.582336 544.002808,576.951233 
	C544.026184,552.588562 544.077881,528.225952 544.302368,503.515869 
	C544.596802,513.799011 544.785522,524.429382 544.815186,535.060181 
	C544.855103,549.362793 544.772400,563.665649 544.609497,578.406677 
z"/>
</svg>